<?xml version="1.0" encoding="UTF-8" standalone="no"?>
<svg
   viewBox="0 0 969.64062 618.1875"
   version="1.1"
   id="svg25734"
   sodipodi:docname="syntax.svg"
   inkscape:version="1.2.2 (b0a84865, 2022-12-01)"
   width="969.64062"
   height="618.1875"
   xmlns:inkscape="http://www.inkscape.org/namespaces/inkscape"
   xmlns:sodipodi="http://sodipodi.sourceforge.net/DTD/sodipodi-0.dtd"
   xmlns="http://www.w3.org/2000/svg"
   xmlns:svg="http://www.w3.org/2000/svg">
  <defs
     id="defs25738">
    <rect
       x="561.46674"
       y="-65.964676"
       width="493.96802"
       height="240.84776"
       id="rect31150" />
    <rect
       x="561.46674"
       y="-65.964676"
       width="493.96802"
       height="240.84776"
       id="rect32614" />
    <rect
       x="561.46674"
       y="-65.964676"
       width="493.96802"
       height="240.84776"
       id="rect32670" />
    <rect
       x="561.46674"
       y="-65.964676"
       width="493.96802"
       height="240.84776"
       id="rect32676" />
    <rect
       x="561.46674"
       y="-65.964676"
       width="493.96802"
       height="240.84776"
       id="rect32900" />
  </defs>
  <sodipodi:namedview
     id="namedview25736"
     pagecolor="#ffffff"
     bordercolor="#666666"
     borderopacity="1.0"
     inkscape:showpageshadow="2"
     inkscape:pageopacity="0.0"
     inkscape:pagecheckerboard="0"
     inkscape:deskcolor="#d1d1d1"
     showgrid="false"
     inkscape:zoom="0.65186406"
     inkscape:cx="347.46508"
     inkscape:cy="411.12866"
     inkscape:window-width="1920"
     inkscape:window-height="1147"
     inkscape:window-x="0"
     inkscape:window-y="25"
     inkscape:window-maximized="0"
     inkscape:current-layer="text32898"
     showguides="false">
    <inkscape:grid
       type="xygrid"
       id="grid28444"
       originx="-484.77929"
       originy="673.00972" />
  </sodipodi:namedview>
  <!--! Font Awesome Free 6.5.1 by @fontawesome - https://fontawesome.com License - https://fontawesome.com/license/free (Icons: CC BY 4.0, Fonts: SIL OFL 1.1, Code: MIT License) Copyright 2023 Fonticons, Inc. -->
  <g
     id="g32915"
     transform="translate(-484.7793,673.00972)">
    <g
       id="g33069">
      <g
         id="g31094"
         transform="translate(504.93522,-443.1152)" />
      <g
         id="g33127">
        <g
           id="g33133" />
        <g
           aria-label="Adv"
           transform="translate(-78,-94)"
           id="text31148"
           style="font-size:96px;line-height:1.25;font-family:'SF Pro Display';-inkscape-font-specification:'SF Pro Display, Normal';white-space:pre;shape-inside:url(#rect31150);display:inline" />
        <g
           aria-label="Adj"
           transform="translate(286,-94)"
           id="text32612"
           style="font-size:96px;line-height:1.25;font-family:'SF Pro Display';-inkscape-font-specification:'SF Pro Display, Normal';white-space:pre;shape-inside:url(#rect32614);display:inline" />
        <g
           aria-label="N"
           transform="translate(830,-94)"
           id="text32668"
           style="font-size:96px;line-height:1.25;font-family:'SF Pro Display';-inkscape-font-specification:'SF Pro Display, Normal';white-space:pre;shape-inside:url(#rect32670);display:inline" />
        <g
           aria-label="AdjP"
           transform="translate(18.32969,-360)"
           id="text32674"
           style="font-size:96px;line-height:1.25;font-family:'SF Pro Display';-inkscape-font-specification:'SF Pro Display, Normal';white-space:pre;shape-inside:url(#rect32676);display:inline" />
        <g
           aria-label="NP"
           transform="translate(434,-628)"
           id="text32898"
           style="font-weight:bold;font-size:96px;line-height:1.25;font-family:'SF Pro Display';-inkscape-font-specification:'SF Pro Display, Bold';white-space:pre;shape-inside:url(#rect32900);display:inline">
          <path
             id="path33100"
             d="m 659.38867,-33.806599 h -9.5625 v 24.0468749 h 9.5625 c 8.10938,0 12.89063,-4.3124999 12.89063,-11.9999999 v -0.09375 c 0,-7.6875 -4.78125,-11.953125 -12.89063,-11.953125 z m -23.71875,56.4375 v -67.640625 h 27.1875 c 14.25,0 23.76563,9.1875 23.76563,23.109375 v 0.09375 c 0,13.9218749 -9.51563,23.1093749 -23.76563,23.1093749 H 649.82617 V 22.630901 Z m -68.57812,0 v -67.640625 h 12.375 l 30.5625,43.9687499 h 0.28125 V -45.009724 h 14.10937 v 67.640625 h -12.28125 l -30.65625,-44.296875 h -0.28125 V 22.630901 Z M 296.26524,290.6309 h 14.15625 v -21.32812 h 13.03125 c 14.25,0 23.76562,-9.1875 23.76562,-23.10938 v -0.0937 c 0,-13.92187 -9.51562,-23.10937 -23.76562,-23.10937 h -27.1875 z m 23.71875,-56.4375 c 8.10937,0 12.89062,4.26563 12.89062,11.95313 v 0.0937 c 0,7.6875 -4.78125,12 -12.89062,12 h -9.5625 V 234.1934 Z m -40.875,-0.28125 c 4.125,0 7.3125,-3.23437 7.3125,-7.125 0,-3.89062 -3.1875,-7.125 -7.3125,-7.125 -4.125,0 -7.3125,3.23438 -7.3125,7.125 0,3.89063 3.1875,7.125 7.3125,7.125 z m -11.15625,73.26563 c 11.76562,0 18,-5.29688 18,-15.51563 V 240.3809 h -13.6875 v 50.90625 c 0,4.07813 -1.78125,5.53125 -6.32813,5.53125 -0.60937,0 -1.21875,-0.0469 -1.73437,-0.0937 v 10.3125 c 0.84375,0.0937 2.48437,0.14063 3.75,0.14063 z m -34.5,-15.51563 c 7.26562,0 12.79687,-3.65625 15.46875,-9.60937 h 0.28125 v 8.57812 h 13.6875 v -67.64062 h -13.6875 v 26.10937 h -0.28125 c -2.71875,-6.09375 -8.34375,-9.75 -15.46875,-9.75 -12.65625,0 -20.4375,9.75 -20.4375,26.10938 v 0.0469 c 0,16.3125 7.78125,26.15625 20.4375,26.15625 z m 4.59375,-11.34375 c -6.84375,0 -11.10938,-5.67187 -11.10938,-14.8125 v -0.0469 c 0,-9.1875 4.3125,-14.76563 11.10938,-14.76563 6.60937,0 11.20312,5.71875 11.20312,14.76563 v 0.0469 c 0,9.09375 -4.54687,14.8125 -11.20312,14.8125 z m -90.9375,10.3125 h 14.85937 l 5.10938,-16.40625 h 23.90625 l 5.10937,16.40625 h 14.85938 l -23.57813,-67.64062 h -16.64062 z m 31.78125,-54.51562 h 0.28125 l 8.53125,27.51562 H 170.35899 Z M 963.0918,556.6309 h 14.10937 v -44.29687 h 0.28125 l 30.65628,44.29687 h 12.2812 v -67.64062 h -14.1093 v 43.96875 h -0.2813 l -30.5625,-43.96875 h -12.375 z M 546.7793,499.91215 c 4.125,0 7.3125,-3.23437 7.3125,-7.125 0,-3.89062 -3.1875,-7.125 -7.3125,-7.125 -4.125,0 -7.3125,3.23438 -7.3125,7.125 0,3.89063 3.1875,7.125 7.3125,7.125 z m -11.15625,73.26563 c 11.76562,0 18,-5.29688 18,-15.51563 V 506.3809 h -13.6875 v 50.90625 c 0,4.07813 -1.78125,5.53125 -6.32813,5.53125 -0.60937,0 -1.21875,-0.0469 -1.73437,-0.0937 v 10.3125 c 0.84375,0.0937 2.48437,0.14063 3.75,0.14063 z m -34.5,-15.51563 c 7.26562,0 12.79687,-3.65625 15.46875,-9.60937 h 0.28125 v 8.57812 h 13.6875 v -67.64062 h -13.6875 v 26.10937 h -0.28125 c -2.71875,-6.09375 -8.34375,-9.75 -15.46875,-9.75 -12.65625,0 -20.4375,9.75 -20.4375,26.10938 v 0.0469 c 0,16.3125 7.78125,26.15625 20.4375,26.15625 z m 4.59375,-11.34375 c -6.84375,0 -11.10938,-5.67187 -11.10938,-14.8125 v -0.0469 c 0,-9.1875 4.3125,-14.76563 11.10938,-14.76563 6.60937,0 11.20312,5.71875 11.20312,14.76563 v 0.0469 c 0,9.09375 -4.54687,14.8125 -11.20312,14.8125 z m -90.9375,10.3125 h 14.85937 l 5.10938,-16.40625 h 23.90625 l 5.10937,16.40625 h 14.85938 L 455.04492,488.99028 H 438.4043 Z m 31.78125,-54.51562 h 0.28125 l 8.53125,27.51562 H 438.0293 Z M 188.9668,556.6309 h 15.42187 l 17.25,-50.25 H 207.3418 l -10.35938,38.15625 h -0.28125 l -10.5,-38.15625 h -14.625 z m -51.84375,1.03125 c 7.26562,0 12.79687,-3.65625 15.46875,-9.60937 h 0.28125 v 8.57812 h 13.6875 v -67.64062 h -13.6875 v 26.10937 h -0.28125 c -2.71875,-6.09375 -8.34375,-9.75 -15.46875,-9.75 -12.65625,0 -20.4375,9.75 -20.4375,26.10938 v 0.0469 c 0,16.3125 7.78125,26.15625 20.4375,26.15625 z m 4.59375,-11.34375 c -6.84375,0 -11.10938,-5.67187 -11.10938,-14.8125 v -0.0469 c 0,-9.1875 4.3125,-14.76563 11.10938,-14.76563 6.60937,0 11.20312,5.71875 11.20312,14.76563 v 0.0469 c 0,9.09375 -4.54687,14.8125 -11.20312,14.8125 z m -90.9375,10.3125 h 14.85937 l 5.10938,-16.40625 H 94.6543 l 5.10937,16.40625 h 14.85938 L 91.04492,488.99028 H 74.4043 Z m 31.78125,-54.51562 h 0.28125 l 8.53125,27.51562 H 74.0293 Z M 627.0117,32.68164 140.1582,463.02539 a 11,11 0 0 0 -0.95508,15.52734 11,11 0 0 0 15.5254,0.95508 L 343.69531,312.47656 472.96289,477.62305 a 11,11 0 0 0 15.44141,1.88281 11,11 0 0 0 1.88281,-15.44336 L 360.20703,297.88086 624.7266,64.06445 974.8711,478.48438 a 11,11 0 0 0 15.5019,1.30273 11,11 0 0 0 1.3028,-15.5 z" />
        </g>
      </g>
    </g>
  </g>
</svg>
